# xmcd CD database file
#
# Track frame offsets:
#	150
#	33985
#	64157
#	93112
#	119035
#	140357
#	167945
#	193957
#	213630
#
# Disc length: 3216 seconds
#
# Revision: 0
# Processed by: cddbd v1.5.2PL0 Copyright (c) Steve Scherf et al.
# Submitted via: CDex 1.70beta1
#
DISCID=890c8e09
DTITLE=石井彰トリオ - Voices In The Night
DYEAR=2001
DGENRE=Jazz
TTITLE0=Angel Eyes
TTITLE1=Snakin' Around
TTITLE2=Setembro
TTITLE3=Greco
TTITLE4=I Concentrate On You
TTITLE5=Sometime In The Show
TTITLE6=A.P.
TTITLE7=Ladies In Mercedes
TTITLE8=Voices In The Night
EXTD=YEAR: 2001
EXTT0=
EXTT1=
EXTT2=
EXTT3=
EXTT4=
EXTT5=
EXTT6=
EXTT7=
EXTT8=
PLAYORDER=
